<svg width="172" height="45" viewBox="0 0 172 45" fill="none" xmlns="http://www.w3.org/2000/svg">
  <path d="M40.0404 21.3817C40.0404 20.7139 39.9691 20.054 39.8242 19.402C39.8175 19.3278 39.8169 19.2531 39.8029 19.1801C39.367 16.8809 38.469 14.777 37.1189 12.8675C36.3612 11.7971 35.5008 10.8176 34.4849 9.98249C34.418 9.91846 34.3546 9.8505 34.2838 9.7921C31.4718 7.47373 28.2486 6.22075 24.6043 6.06968C23.5861 6.02756 22.5701 6.07249 21.5654 6.26681C21.4817 6.27355 21.3969 6.27355 21.3149 6.28871C19.1695 6.69364 17.1538 7.4361 15.3325 8.65482C11.4321 11.2641 9.01877 14.8748 8.22688 19.5031C7.69335 22.6217 8.10333 25.6472 9.42482 28.5429C12.4216 35.1094 19.616 39.444 27.4085 37.6468C33.6559 36.2057 37.6754 32.2361 39.5305 26.1004C39.9944 24.5661 40.1196 22.9817 40.0404 21.3817ZM38.3595 25.7635C36.6617 31.2291 33.1443 34.9628 27.5562 36.323C21.3289 37.8383 16.1777 35.8047 12.234 30.7928C10.1903 28.1958 9.15749 25.1957 9.21814 21.8776C9.29396 17.7525 10.9041 14.2682 13.8571 11.4174C15.8576 9.48601 18.2366 8.2145 20.9622 7.61357C20.9976 7.60571 21.0301 7.58661 21.0644 7.57257C21.0801 7.58718 21.0964 7.59841 21.1133 7.60683C21.1284 7.58774 21.1447 7.57145 21.1621 7.55909C21.8327 7.46811 22.5005 7.35129 23.1778 7.31479C27.0299 7.11036 30.4311 8.2673 33.4156 10.6946C34.3776 11.477 35.233 12.3711 35.9518 13.3685C37.4334 15.4263 38.4494 17.6918 38.7605 20.2399C38.8728 21.1565 38.8874 22.0736 38.8605 22.9935H38.8588C38.8588 22.9935 38.8537 22.9963 38.8509 22.9986C38.8537 23.0025 38.8565 23.0065 38.8599 23.0098C38.7582 23.9399 38.6381 24.8677 38.3595 25.7635Z" fill="white"/>
  <path d="M36.4876 21.8798C32.4041 17.8283 28.3183 13.779 24.2387 9.72358C24.0814 9.56745 24.0039 9.54049 23.8298 9.71459C20.8459 12.6962 17.8542 15.67 14.8636 18.6455C13.7836 19.7199 12.7019 20.7931 11.6208 21.8669C11.4921 21.9484 11.3866 22.0332 11.5747 22.1635C11.7404 22.3213 11.9061 22.4785 12.0717 22.6364C12.147 22.7183 12.2189 22.8037 12.2975 22.8823C16.1289 26.6935 19.9631 30.503 23.7894 34.3203C23.9781 34.5084 24.0691 34.5461 24.2808 34.3338C26.4722 32.1356 28.6788 29.952 30.8787 27.7617C31.7857 26.8586 32.6854 25.9488 33.5885 25.0418C34.5759 24.073 35.5615 23.1025 36.5522 22.1376C36.6977 21.9955 36.5556 21.9478 36.4876 21.8798ZM24.6436 32.0373V29.4572C24.6425 28.5311 24.6425 27.6044 24.6414 26.6783V26.6576C24.6408 26.1785 24.6408 25.7 24.6397 25.2215V25.2013C24.6391 24.6694 24.6385 24.1376 24.6374 23.6057V23.6001C24.6374 23.3861 24.6369 23.1727 24.6363 22.9587V22.9357C24.6363 22.7947 24.6425 22.7099 24.8463 22.7105C26.8418 22.7167 28.8372 22.7178 30.8321 22.7183H30.8489C31.8402 22.7183 32.8315 22.7183 33.8227 22.7189C33.8575 22.7189 33.8924 22.7251 33.9901 22.7335C30.8894 25.864 27.7994 28.9349 24.6436 32.0373ZM24.6459 12.1133C24.7705 12.1509 24.8362 12.2424 24.9115 12.316C25.9342 13.3179 26.9552 14.3221 27.9774 15.3246C28.0437 15.3898 28.1155 15.4487 28.1846 15.5105C28.2178 15.5431 28.2509 15.5751 28.284 15.6071C28.4037 15.7576 28.5379 15.8941 28.6923 16.0092C28.7109 16.0587 28.7446 16.0929 28.7945 16.1103C28.8198 16.167 28.8603 16.208 28.9175 16.2316C29.3758 16.6967 29.8296 17.1656 30.2924 17.6261C31.2915 18.6191 32.2951 19.6081 33.2965 20.5982C33.3184 20.6544 33.3571 20.6943 33.4133 20.7162C33.4318 20.769 33.4672 20.8049 33.52 20.8234C33.5419 20.8802 33.5807 20.9195 33.6374 20.9414C33.6565 20.9936 33.6919 21.029 33.7441 21.0481C33.8059 21.1262 33.8677 21.2037 33.9283 21.28C33.8688 21.3547 33.798 21.3227 33.7385 21.3227C30.8096 21.3233 27.8802 21.3194 24.9514 21.3255C24.72 21.3261 24.6357 21.2935 24.6369 21.0284C24.6414 19.5446 24.6419 18.0603 24.6408 16.5765V16.5607C24.6447 16.3569 24.6492 16.1553 24.6593 15.9514C24.6683 15.761 24.6537 15.5684 24.6402 15.3752V15.36C24.6391 14.3294 24.6374 13.2994 24.6369 12.2688C24.6369 12.2239 24.6419 12.1784 24.6459 12.1133ZM23.3058 12.2172C23.3406 12.2818 23.353 12.3559 23.3496 12.4446C23.3479 12.4879 23.3451 12.5463 23.3592 12.5912V13.2152C23.3171 13.2837 23.3491 13.382 23.3491 13.4561C23.3429 16.0014 23.344 18.5466 23.344 21.0919C23.344 21.1335 23.3463 21.1745 23.3513 21.2138C23.3339 21.2857 23.2834 21.3283 23.1379 21.3278C20.2107 21.3188 17.2836 21.3216 14.3558 21.3216H14.143C17.2005 18.2512 20.2141 15.2404 23.3058 12.2172ZM23.3603 31.8351C23.3603 31.8598 23.3519 31.884 23.339 31.9587C20.2253 28.9096 17.1769 25.8466 14.0902 22.7161H15.7167C18.1765 22.7161 20.637 22.7172 23.0975 22.7144C23.2626 22.7144 23.367 22.7077 23.3665 22.9385C23.3575 25.9039 23.3609 28.8692 23.3603 31.8351Z" fill="white"/>
  <path d="M19.58 31.5953C18.9724 31.5976 18.3641 31.6015 17.7565 31.588C15.9042 31.5459 14.5743 30.2019 14.5513 28.3525C14.544 27.7448 14.549 27.1372 14.5468 26.5289C14.5468 26.438 14.5648 26.3414 14.4873 26.2655C14.129 25.9162 13.7723 25.5663 13.373 25.1754C13.4224 26.3588 13.3449 27.4809 13.4202 28.6024C13.5769 30.9281 15.3263 32.6489 17.6537 32.7214C18.7095 32.7539 19.7671 32.7309 20.824 32.732C20.8656 32.732 20.9189 32.7478 20.9459 32.6792C20.61 32.3619 20.2691 32.0446 19.9344 31.7206C19.8316 31.6206 19.7182 31.5948 19.58 31.5953Z" fill="white"/>
  <path d="M28.5154 12.5193C29.1051 12.5126 29.6943 12.5098 30.2834 12.5216C31.9671 12.5541 33.3611 13.8167 33.5442 15.492C33.6172 16.162 33.5576 16.8382 33.5678 17.511C33.5689 17.6031 33.5369 17.7048 33.6003 17.784C33.9328 18.1939 34.3203 18.5489 34.7185 18.9072C34.7039 17.6711 34.8303 16.4462 34.6455 15.2314C34.3473 13.2668 32.8214 11.7005 30.9433 11.4528C29.6898 11.2871 28.4267 11.4281 27.1681 11.3753C27.491 11.7173 27.7977 12.033 28.0931 12.3581C28.2121 12.489 28.3464 12.5216 28.5154 12.5193Z" fill="white"/>
  <path d="M14.4002 17.8811C14.5131 17.7649 14.5485 17.6385 14.5457 17.479C14.5361 16.946 14.5356 16.413 14.5395 15.8801C14.5547 13.9683 15.9492 12.5564 17.8626 12.521C18.4422 12.5109 19.0218 12.5227 19.6014 12.5221C19.6845 12.5221 19.8002 12.5424 19.8457 12.498C20.2107 12.1357 20.5629 11.7611 20.9111 11.3972C19.8086 11.3972 18.6949 11.35 17.5863 11.4073C15.3915 11.5213 13.6583 13.2129 13.4303 15.401C13.3101 16.5574 13.409 17.7177 13.4252 18.9106C13.7499 18.5669 14.0711 18.2203 14.4002 17.8811Z" fill="white"/>
  <path d="M34.7118 27.0782C34.7213 26.4582 34.714 25.8381 34.714 25.1479C34.358 25.5147 34.0232 25.805 33.7424 26.1498C33.5801 26.2476 33.5414 26.3947 33.5408 26.5778C33.5397 27.3354 33.6127 28.0987 33.5099 28.8496C33.2976 30.4013 32.0373 31.5201 30.4552 31.5852C29.792 31.6127 29.127 31.5908 28.4626 31.5919C28.3615 31.5925 28.2599 31.5745 28.1751 31.6627C27.8353 32.0148 27.491 32.3631 27.1164 32.7455C28.3868 32.7141 29.619 32.7938 30.8495 32.6916C31.0163 32.6781 31.1831 32.6433 31.3465 32.6062C33.1825 32.1878 34.6343 30.4704 34.6562 28.694C34.6668 28.6682 34.6781 28.6434 34.6781 28.6142V28.5671C34.7539 28.0728 34.7045 27.5741 34.7118 27.0782Z" fill="white"/>
  <path d="M154.876 29.9087V13.5185H158.621V16.2502H158.792C159.09 15.3041 159.603 14.5749 160.328 14.0627C161.061 13.5434 161.897 13.2837 162.836 13.2837C163.049 13.2837 163.288 13.2944 163.551 13.3157C163.821 13.33 164.045 13.3549 164.223 13.3904V16.9438C164.059 16.8869 163.8 16.8371 163.444 16.7944C163.096 16.7446 162.758 16.7197 162.43 16.7197C161.726 16.7197 161.093 16.8727 160.531 17.1786C159.976 17.4773 159.539 17.8935 159.219 18.427C158.898 18.9606 158.738 19.5759 158.738 20.2731V29.9087H154.876Z" fill="white"/>
  <path d="M144.92 30.2289C143.277 30.2289 141.858 29.8874 140.663 29.2045C139.475 28.5144 138.561 27.5398 137.92 26.2807C137.28 25.0144 136.96 23.5241 136.96 21.8097C136.96 20.1237 137.28 18.644 137.92 17.3706C138.568 16.0901 139.471 15.0942 140.631 14.3828C141.79 13.6643 143.153 13.3051 144.718 13.3051C145.728 13.3051 146.681 13.4687 147.577 13.7959C148.481 14.1161 149.278 14.614 149.968 15.2898C150.665 15.9656 151.213 16.8264 151.611 17.8722C152.009 18.9108 152.209 20.1486 152.209 21.5856V22.77H138.774V20.1664H148.506C148.499 19.4265 148.339 18.7685 148.026 18.1923C147.713 17.6089 147.275 17.1501 146.713 16.8158C146.158 16.4814 145.511 16.3142 144.771 16.3142C143.981 16.3142 143.288 16.5063 142.69 16.8904C142.093 17.2675 141.627 17.7654 141.292 18.3843C140.965 18.9961 140.798 19.6684 140.791 20.4011V22.674C140.791 23.6272 140.965 24.4453 141.314 25.1283C141.662 25.8041 142.15 26.3234 142.776 26.6862C143.402 27.0419 144.134 27.2197 144.974 27.2197C145.536 27.2197 146.044 27.1415 146.5 26.985C146.955 26.8213 147.35 26.583 147.684 26.27C148.019 25.957 148.271 25.5693 148.442 25.1069L152.049 25.5124C151.821 26.4657 151.387 27.298 150.747 28.0093C150.114 28.7136 149.303 29.2614 148.314 29.6526C147.325 30.0368 146.194 30.2289 144.92 30.2289Z" fill="white"/>
  <path d="M131.93 30.1435C131.282 30.1435 130.727 29.9159 130.265 29.4606C129.803 29.0053 129.575 28.4504 129.582 27.7959C129.575 27.1557 129.803 26.6079 130.265 26.1526C130.727 25.6974 131.282 25.4697 131.93 25.4697C132.556 25.4697 133.1 25.6974 133.562 26.1526C134.032 26.6079 134.27 27.1557 134.277 27.7959C134.27 28.2299 134.156 28.6247 133.936 28.9804C133.722 29.3361 133.438 29.6206 133.082 29.834C132.733 30.0403 132.349 30.1435 131.93 30.1435Z" fill="white"/>
  <path d="M115.703 20.3051V29.9087H111.84V13.5185H115.532V16.3036H115.724C116.101 15.3859 116.702 14.6567 117.528 14.1161C118.36 13.5754 119.388 13.3051 120.611 13.3051C121.742 13.3051 122.728 13.547 123.567 14.0307C124.414 14.5144 125.068 15.2151 125.531 16.1328C126 17.0505 126.231 18.1638 126.224 19.4728V29.9087H122.361V20.0703C122.361 18.9748 122.077 18.1176 121.508 17.4987C120.946 16.8798 120.167 16.5703 119.171 16.5703C118.495 16.5703 117.894 16.7197 117.367 17.0185C116.848 17.3102 116.439 17.7334 116.14 18.2883C115.849 18.8432 115.703 19.5154 115.703 20.3051Z" fill="white"/>
  <path d="M97.9928 20.3051V29.9087H94.13V13.5185H97.8221V16.3036H98.0142C98.3912 15.3859 98.9923 14.6567 99.8175 14.1161C100.65 13.5754 101.678 13.3051 102.901 13.3051C104.032 13.3051 105.018 13.547 105.857 14.0307C106.704 14.5144 107.358 15.2151 107.821 16.1328C108.29 17.0505 108.521 18.1638 108.514 19.4728V29.9087H104.651V20.0703C104.651 18.9748 104.367 18.1176 103.798 17.4987C103.236 16.8798 102.457 16.5703 101.461 16.5703C100.785 16.5703 100.184 16.7197 99.6575 17.0185C99.1382 17.3102 98.7291 17.7334 98.4303 18.2883C98.1387 18.8432 97.9928 19.5154 97.9928 20.3051Z" fill="white"/>
  <path d="M82.1929 30.2395C81.1543 30.2395 80.2188 30.0546 79.3865 29.6847C78.5613 29.3076 77.9068 28.7527 77.4231 28.02C76.9465 27.2873 76.7081 26.3838 76.7081 25.3097C76.7081 24.3849 76.8789 23.6201 77.2203 23.0154C77.5618 22.4108 78.0277 21.927 78.6182 21.5642C79.2086 21.2014 79.8738 20.9275 80.6136 20.7426C81.3606 20.5505 82.1324 20.4118 82.9292 20.3264C83.8895 20.2268 84.6685 20.1379 85.2661 20.0597C85.8636 19.9743 86.2976 19.8462 86.5679 19.6755C86.8453 19.4977 86.9841 19.2238 86.9841 18.8539V18.7898C86.9841 17.986 86.7457 17.3635 86.2691 16.9225C85.7925 16.4814 85.106 16.2609 84.2097 16.2609C83.2635 16.2609 82.513 16.4672 81.9581 16.8798C81.4104 17.2924 81.0405 17.7797 80.8484 18.3417L77.2417 17.8295C77.5262 16.8335 77.9957 16.0012 78.6502 15.3325C79.3047 14.6567 80.105 14.1516 81.0511 13.8173C81.9973 13.4758 83.043 13.3051 84.1883 13.3051C84.978 13.3051 85.764 13.3976 86.5466 13.5825C87.3291 13.7675 88.044 14.0734 88.6914 14.5002C89.3387 14.9199 89.858 15.4926 90.2493 16.2182C90.6477 16.9438 90.8469 17.8508 90.8469 18.9392V29.9087H87.1334V27.6572H87.0054C86.7706 28.1125 86.4398 28.5393 86.013 28.9377C85.5933 29.329 85.0633 29.6455 84.4231 29.8874C83.7899 30.1222 83.0466 30.2395 82.1929 30.2395ZM83.1959 27.4011C83.9714 27.4011 84.6436 27.2482 85.2127 26.9423C85.7818 26.6293 86.2193 26.2167 86.5252 25.7045C86.8382 25.1923 86.9947 24.6338 86.9947 24.0292V22.0978C86.8738 22.1974 86.6675 22.2898 86.3758 22.3752C86.0913 22.4606 85.7711 22.5353 85.4155 22.5993C85.0598 22.6633 84.7076 22.7202 84.3591 22.77C84.0105 22.8198 83.7081 22.8625 83.452 22.8981C82.8758 22.9763 82.3601 23.1044 81.9048 23.2822C81.4495 23.4601 81.0903 23.709 80.827 24.0292C80.5638 24.3422 80.4322 24.7477 80.4322 25.2456C80.4322 25.957 80.6919 26.4941 81.2112 26.8569C81.7305 27.2197 82.3921 27.4011 83.1959 27.4011Z" fill="white"/>
  <path d="M74.1052 8.05508V29.9087H70.2424V8.05508H74.1052Z" fill="white"/>
  <path d="M52.0629 36.0551V13.5185H55.8617V16.2289H56.0858C56.285 15.8305 56.566 15.4072 56.9288 14.959C57.2916 14.5038 57.7824 14.1161 58.4013 13.7959C59.0202 13.4687 59.8099 13.3051 60.7702 13.3051C62.0365 13.3051 63.1783 13.6288 64.1955 14.2761C65.2199 14.9164 66.0309 15.8661 66.6285 17.1252C67.2331 18.3772 67.5355 19.9138 67.5355 21.735C67.5355 23.5348 67.2402 25.0642 66.6498 26.3234C66.0594 27.5825 65.2555 28.5429 64.2382 29.2045C63.2209 29.8661 62.0685 30.1968 60.7809 30.1968C59.8419 30.1968 59.0629 30.0403 58.444 29.7273C57.8251 29.4143 57.3271 29.0373 56.9501 28.5962C56.5802 28.1481 56.2921 27.7248 56.0858 27.3264H55.9257V36.0551H52.0629ZM55.851 21.7136C55.851 22.7736 56.0004 23.7019 56.2992 24.4987C56.6051 25.2954 57.0426 25.9179 57.6117 26.3661C58.1879 26.8071 58.8851 27.0276 59.7032 27.0276C60.5568 27.0276 61.2718 26.8 61.848 26.3447C62.4242 25.8823 62.8581 25.2527 63.1498 24.456C63.4486 23.6521 63.598 22.738 63.598 21.7136C63.598 20.6963 63.4521 19.7929 63.1605 19.0033C62.8688 18.2136 62.4349 17.5947 61.8586 17.1465C61.2824 16.6984 60.5639 16.4743 59.7032 16.4743C58.878 16.4743 58.1772 16.6913 57.601 17.1252C57.0248 17.5591 56.5873 18.1674 56.2885 18.9499C55.9969 19.7324 55.851 20.6537 55.851 21.7136Z" fill="white"/>
  </svg>
  